<?xml version="1.0" encoding="utf-8"?>
<!-- Generator: Adobe Illustrator 19.0.0, SVG Export Plug-In . SVG Version: 6.00 Build 0)  -->
<svg version="1.1" id="Livello_1" xmlns="http://www.w3.org/2000/svg" xmlns:xlink="http://www.w3.org/1999/xlink" x="0px" y="0px"
	 viewBox="24 -2.6 179.5 121" style="enable-background:new 24 -2.6 179.5 121;" xml:space="preserve">
<style type="text/css">
	.st0{fill:#F3C7AA;}
	.st1{fill:#F2B697;}
	.st2{fill:#866B3A;}
</style>
<g id="XMLID_15_">
	<g id="XMLID_82_">
		<g id="XMLID_89_">
			<polygon id="XMLID_90_" class="st0" points="112.7,50.1 223.5,95.1 212.3,124.1 101.4,79.1 			"/>
		</g>
		<g id="XMLID_87_">
			<path id="XMLID_88_" class="st1" d="M126.3,77.9l-2.5,0.2l-3.3,0.2l-2.1,1.4l-2.2,2.5l-0.1,2.5l96.1,39.3l2.4-6.1
				c0,0-69.8-29.1-77.8-32.2s-6.8-8.6-6.8-8.6L126.3,77.9z"/>
		</g>
		<g id="XMLID_85_">
			<polygon id="XMLID_86_" class="st2" points="223.9,94.1 223.2,96 130.6,58.1 131.3,56.2 			"/>
		</g>
		<g id="XMLID_83_">
			<polygon id="XMLID_84_" class="st2" points="212.7,123 212,124.9 115.3,85.4 116,83.6 			"/>
		</g>
	</g>
	<g id="XMLID_16_">
		<g id="XMLID_80_">
			<polygon id="XMLID_81_" class="st0" points="131.1,76.1 134.8,70.9 137,65.3 136.9,57.6 128.1,43.2 125.8,34.4 122.8,30.3 
				118.9,20.6 117,8.8 119.4,1.5 119.6,-1.1 116.3,-1.9 108.6,2.4 104.6,11.2 104.5,20.4 107.1,29.4 105.5,38.6 95.7,39.4 87,36.1 
				78.7,29.5 69.7,21.5 61.3,16 53.7,10.3 47.7,9 46,10.5 46.1,15 52,22 57.8,27 64.2,34.1 76.7,45.6 75.8,46.4 71.4,45.7 
				62.3,42.8 52.4,39.5 42.5,36 35.7,33.7 28.9,33.1 25.3,36.1 25.7,40.6 30.5,43.4 39,46.1 54.2,53.3 68.5,58.5 72.8,60.9 
				69.6,61.4 54.2,58.7 38.5,54.2 31.8,53.8 28.2,56.3 29.8,60.8 40.2,65.9 52.9,70.2 65.4,72.4 75.5,75.4 76.2,78.9 74.8,80.9 
				69.4,82.3 55.5,84.3 45.6,85.3 40.2,86.5 36.8,89.3 37.3,92 41.6,93.9 55.4,95.9 67,94.5 82.5,92.8 91.3,93.8 97.2,92.1 
				106.6,93.2 120.2,92.7 129.5,91.6 132.4,89.5 133,83.9 130.4,78.7 			"/>
		</g>
		<g id="XMLID_52_">
			<path id="XMLID_53_" class="st1" d="M105.1,10.2l-0.6,4.9l0.4,6.8l2.2,6.1l-0.4,6.2l-1.8,6c0,0-1.4,2.8-4.8,6
				c-3.4,3.2-21.7,10.6-21.7,10.6c10.4,4.4,14.4,24.3,14.4,24.3c3.6-10.3,25.2-5.8,25.2-5.8l0.5-1.4c-10.3-7.6-8.2-22.4-7.2-24.7
				s1.3-4.9-0.2-6s-0.6-1.7,0.3-4.8s-1.8-15.1-3.3-17.8s-1.6-14.4-1.6-14.4L105.1,10.2z"/>
		</g>
		<g id="XMLID_50_">
			<path id="XMLID_51_" class="st1" d="M137,65l-2.8,6.9l-2.7,3.7l-1.1,2l2.2,8l-0.1,4.1l-2,1.7l-11.2,2.1l-12.2-0.1l-9-1l-7.2,1.5
				l-7.9-1l-16.9,1.9l-14.7,0.6l-9.7-1.2L36.5,92v-1.2c0,0-2-3.3,0.1-0.3c2.1,3,14-1,16.2-0.1c2.2,0.8,10.3-1.6,12.9-0.9
				c2.6,0.7,11.7-0.7,14-2.5s9.9,0.5,12.1,0.4c2.3-0.1,4.1-3.9,7.9-2.7c3.9,1.1,24.4,4.4,26.4,2.7s-1-7.5-2.1-10.5s4.8-7,8.4-10.4
				s4.5-7.3,4.5-7.3L137,65z"/>
		</g>
		<g id="XMLID_48_">
			<path id="XMLID_49_" class="st1" d="M76.9,77.7l-3.1-3.2l-4.3-1.4L59,70.9l-8.5-1.8l-13.2-4.6l-6.2-3.4l-2.5-2.4l-0.3-2.5
				c-1.9,3.1,13.1,3.2,12.7,4.7s14.2,2.5,14.4,5c0.1,2.5,13.5,2.8,20,4.5s1.6,7.2,1.6,7.2L76.9,77.7z"/>
		</g>
		<g id="XMLID_46_">
			<path id="XMLID_47_" class="st1" d="M71.1,59.5l-5.5-2.1l-9.9-3.5L38,45.7L32,44l-5.2-2.8l-1.6-2.1l0.1-2.9
				c-1.1,2.6,15,3.5,14.2,5.5s16,3.4,15,5.8c-1,2.4,15,6.6,19.1,9.3s-0.3,4.7-0.3,4.7L71.1,59.5z"/>
		</g>
		<g id="XMLID_44_">
			<path id="XMLID_45_" class="st1" d="M76.2,44.6l-4-4.1l-8.5-7.1l-8.6-9.8l-5.8-5l-3.2-4.9l0.3-4.3c-1.9,2.6,12.4,7.3,10.7,9.9
				S69,24.4,67,27.8s10,10.6,12.5,14.8s-2.2,4.3-2.2,4.3L76.2,44.6z"/>
		</g>
		<g id="XMLID_17_">
			<g id="XMLID_40_">
				<path id="XMLID_41_" class="st2" d="M55.3,96.2h-0.6c-6.5-0.2-15.5-0.8-18.2-3.7c-0.6-0.6-0.9-1.4-0.9-2.2
					c0.2-5.6,10.7-6.2,14.1-6.4c3.7-0.2,19.2-2.4,22.2-3.1c1.6-0.3,2.7-0.9,3.1-1.6c0.3-0.6,0.3-1.4-0.1-2.5
					c-0.7-1.8-12.1-3.9-16.4-4.6c-2.9-0.5-4.6-0.8-5.4-1.1c-0.4-0.1-1.4-0.5-2.8-0.8c-12.5-3.7-24-7.8-22.7-13.6
					c0.2-1.1,0.9-2,1.9-2.6c4-2.4,13.2,0.2,20,2.2c2.3,0.6,4.3,1.2,5.4,1.4c1.6,0.2,3.8,0.7,6.1,1.2c3.2,0.7,7.4,1.6,9.8,1.7
					c-2.3-1.1-6.9-2.7-9.2-3.5c-1.3-0.4-2.4-0.8-3-1.1c-3.2-1.2-19.5-8.6-20.3-9.1c-0.1-0.1-0.7-0.2-1.2-0.3
					c-3.4-0.8-10.4-2.6-12.3-6.5c-0.7-1.3-0.7-2.7-0.1-4.2c0.7-1.6,1.8-2.8,3.3-3.4c4.4-1.8,11.2,1.3,14.1,2.6
					c0.3,0.1,0.6,0.3,0.8,0.4c1.2,0.5,4.6,1.5,8.1,2.6c3.9,1.2,7.9,2.3,9.9,3.1c5.4,2.1,12,4.2,14.8,4.4c-0.8-1.1-3.3-3.8-11.1-10.3
					c-0.4-0.3-0.6-0.5-0.8-0.7c-1.4-1.3-9.1-9.4-9.9-10.3c-1.5-1.1-11.5-9.1-8.3-14.6c0.6-1,1.5-1.6,2.6-1.7
					c4.5-0.7,12.2,5.9,13.5,7.1c3.1,1.4,10,6.4,11.9,8.6c1.3,1.6,10.4,8.8,13.9,11.5l8.3,3.3l9.2-0.7c1.7-4.9,1.1-9.2,1.1-9.2
					c0-0.1-0.1-0.3-0.2-0.6c-2.8-7.7-3.1-14.6-1.1-20.3c2.9-8,9.2-9.7,11.1-10c0.7-0.1,3.2-0.5,4.1,0.6c1.2,1.5-0.3,5.4-1.2,7.6
					c-3.1,8.4,5.1,25.4,6.5,26.8c1.2,0.9,2.1,3.2,3.1,7.6c0.5,2.1,2.6,5.4,7.9,13.5c5.4,8.2,0.1,18.9-3.8,22.5c-1,1-0.8,1.7,0,3.7
					s1.8,4.8,1.3,8.9c-1.1,8.1-29.9,5.4-36.3,4.7c-4.8,1.9-12.9,0.6-14.4,0.3c-3.5,0.8-23.2,2.6-27.3,2.6
					C55.6,96.2,55.4,96.2,55.3,96.2z M83.2,91.6c0.1,0,9.2,1.7,13.7-0.2l0.2-0.1h0.3c13.9,1.6,33.8,1.7,34.4-2.9
					c0.5-3.6-0.5-6-1.2-7.9c-0.8-2.1-1.6-4,0.5-5.9c2.6-2.5,8.6-12.1,3.4-19.9c-5.2-8-7.6-11.6-8.1-14.1c-1-4.6-1.8-6-2.4-6.4
					c-1.4-1.4-10.5-19.6-7-29.2c1-2.3,1.7-4.9,1.6-5.5c-0.4-0.2-1.9-0.2-3.9,0.5c-2.1,0.8-5.9,2.8-7.9,8.3
					c-1.9,5.3-1.5,11.6,1.1,18.9c0.1,0.4,0.2,0.7,0.3,0.8c0,0.1,1.8,12.1-7.8,20.1L99,46.6c2.5-2.1,4.1-4.5,5.2-6.8l-8.6,0.6
					l-8.9-3.5l-0.2-0.1C86,36.4,73.9,27,72,24.8c-1.8-2-8.7-7-11.3-8.1l-0.2-0.1l-0.1-0.1c-2.3-2-8.8-7.2-12-6.7
					c-0.5,0.1-0.9,0.3-1.2,0.8c-2,3.4,5.2,10,7.8,12l0.1,0.1c0.1,0.1,8.5,9,9.8,10.2c0.1,0.1,0.4,0.3,0.7,0.6
					C77.3,43.3,78,45.1,77.7,46.3c-0.1,0.5-0.6,0.9-1.2,1C73,48,61.3,43.4,60,42.9c-1.9-0.8-5.9-1.9-9.8-3.1c-3.6-1.1-7-2.1-8.3-2.6
					c-0.2-0.1-0.5-0.2-0.8-0.4c-2.7-1.2-8.9-4-12.5-2.5c-1,0.4-1.8,1.2-2.2,2.3c-0.4,0.9-0.4,1.7,0,2.5c1.6,3.1,8.4,4.8,11,5.4
					c1.1,0.3,1.5,0.4,1.7,0.5c0.8,0.5,16.8,7.8,20,9c0.6,0.2,1.7,0.6,3,1c9.5,3.3,11.7,4.4,11.7,5.8c0,0.3-0.1,1-1,1.3
					c-2,0.7-6.2-0.1-12.3-1.5c-2.3-0.5-4.4-1-5.9-1.2c-1.2-0.2-3.2-0.7-5.6-1.4c-5.7-1.6-15.2-4.3-18.4-2.4c-0.5,0.3-0.8,0.7-1,1.3
					c-1,4.7,15.9,9.6,21.4,11.2c1.5,0.4,2.5,0.7,3,0.9c0.6,0.2,2.7,0.6,5,1c11.1,2,16.9,3.4,17.9,5.9c0.6,1.6,0.6,3,0,4.2
					c-0.7,1.3-2.2,2.2-4.4,2.6c-3,0.7-18.7,2.9-22.5,3.1c-10.5,0.6-12.2,3-12.3,4.4c0,0.2,0,0.4,0.3,0.8c1.1,1.2,4.9,2.7,16.8,3.1
					h0.7c2.4,0.2,24.8-1.8,27.3-2.6l0.2-0.1L83.2,91.6z"/>
			</g>
			<g id="XMLID_38_">
				<path id="XMLID_39_" class="st2" d="M117.9,75.5l0.9-1.8c-7.4-3.6-11.4-9.3-11.6-16.9C107,51,109,46.3,109,46.2l-1.9-0.8
					C107,45.6,98.5,66.1,117.9,75.5z"/>
			</g>
			<g id="XMLID_36_">
				<path id="XMLID_37_" class="st2" d="M39.4,44c0,0,1.2-4.1,2.2-5.7l-0.8-0.5c-1.1,1.7-2.3,5.8-2.4,5.9L39.4,44z"/>
			</g>
			<g id="XMLID_34_">
				<path id="XMLID_35_" class="st2" d="M54.4,50.8c0,0,0.6-5,2.6-6.9l-0.7-0.7c-2.3,2.1-2.9,7.3-3,7.5L54.4,50.8z"/>
			</g>
			<g id="XMLID_32_">
				<path id="XMLID_33_" class="st2" d="M65,31.4c1.3-1.9,3.8-5.1,4.9-5.4l-0.2-1c-1.8,0.4-5.1,5.3-5.5,5.8L65,31.4z"/>
			</g>
			<g id="XMLID_30_">
				<path id="XMLID_31_" class="st2" d="M55.7,21.5c1-1.4,2.7-3.5,3.5-3.6l-0.2-1c-1.4,0.2-3.7,3.4-4.1,4L55.7,21.5z"/>
			</g>
			<g id="XMLID_28_">
				<path id="XMLID_29_" class="st2" d="M41.8,63.2c0,0,0.2-3,1.9-4.8L43,57.7c-1.9,2.1-2.1,5.3-2.1,5.4L41.8,63.2z"/>
			</g>
			<g id="XMLID_26_">
				<path id="XMLID_27_" class="st2" d="M55.2,67.9h1c0,0-0.1-3.9,1.5-5.9L57,61.4C55.2,63.7,55.2,67.8,55.2,67.9z"/>
			</g>
			<g id="XMLID_24_">
				<path id="XMLID_25_" class="st2" d="M52.7,93.1l1-0.3c-0.4-1.5-1-4.1-0.7-5l-1-0.4C51.4,88.9,52.5,92.6,52.7,93.1z"/>
			</g>
			<g id="XMLID_22_">
				<path id="XMLID_23_" class="st2" d="M66.2,92.1l0.9-0.4c-0.9-2.2-1.6-4.9-1.3-5.5l-0.9-0.4C64.2,87.1,65.9,91.3,66.2,92.1z"/>
			</g>
			<g id="XMLID_20_">
				<path id="XMLID_21_" class="st2" d="M116.6,7l0.4-0.9c-1.3-0.6-0.5-4.7,0.6-7.5l-0.9-0.3C116.2-0.5,114,5.7,116.6,7z"/>
			</g>
			<g id="XMLID_18_">
				<path id="XMLID_19_" class="st2" d="M108.1,18.5c1.1,0,2.3-0.2,3.4-0.9l-0.5-0.9c-2.8,1.6-6.2,0.1-6.3,0.1l-0.4,0.9
					C104.6,17.8,106.2,18.5,108.1,18.5z"/>
			</g>
		</g>
	</g>
</g>
</svg>
