<?xml version="1.0" encoding="utf-8"?>
<!-- Generator: Adobe Illustrator 19.0.0, SVG Export Plug-In . SVG Version: 6.00 Build 0)  -->
<svg version="1.1" id="Livello_1" xmlns="http://www.w3.org/2000/svg" xmlns:xlink="http://www.w3.org/1999/xlink" x="0px" y="0px"
	 viewBox="78 41.5 32 32" style="enable-background:new 78 41.5 32 32;" xml:space="preserve">
<style type="text/css">
	.st0{fill:#F3C7AA;}
	.st1{fill:#F2B697;}
	.st2{fill:#866B3A;}
</style>
<g id="XMLID_1_">
	<g id="XMLID_77_">
		<g id="XMLID_95_">
			<polygon id="XMLID_96_" class="st0" points="88.9,65 60.6,76.4 57.8,69 86,57.6 			"/>
		</g>
		<g id="XMLID_93_">
			<path id="XMLID_94_" class="st1" d="M81.6,64.4c0,0,0.3,1.4-1.7,2.2c-2,0.8-19.8,8.2-19.8,8.2l0.6,1.6l24.5-10l0-0.6l-0.6-0.6
				L84,64.7l-0.8-0.1l-0.6-0.1L81.6,64.4z"/>
		</g>
		<g id="XMLID_91_">
			<polygon id="XMLID_92_" class="st2" points="81.2,59.1 81.4,59.6 57.8,69.2 57.7,68.8 			"/>
		</g>
		<g id="XMLID_78_">
			<polygon id="XMLID_79_" class="st2" points="85.1,66.1 85.3,66.6 60.7,76.6 60.5,76.1 			"/>
		</g>
	</g>
	<g id="XMLID_2_">
		<g id="XMLID_75_">
			<polygon id="XMLID_76_" class="st0" points="81.5,64.8 80.8,66.2 81,67.6 81.7,68.1 84.1,68.4 87.5,68.5 89.9,68.3 91.4,68.7 
				93.7,68.4 97.6,68.9 100.6,69.2 104.1,68.7 105.2,68.2 105.3,67.5 104.4,66.8 103.1,66.5 100.5,66.3 97,65.8 95.6,65.4 
				95.3,64.9 95.5,64 98,63.2 101.2,62.7 104.4,61.6 107.1,60.3 107.5,59.1 106.6,58.5 104.9,58.6 100.9,59.7 97,60.4 96.1,60.3 
				97.2,59.7 100.9,58.4 104.7,56.5 106.9,55.9 108.1,55.1 108.2,54 107.3,53.2 105.6,53.4 103.9,54 101.3,54.9 98.8,55.7 
				96.5,56.4 95.4,56.6 95.1,56.4 98.3,53.5 100,51.7 101.4,50.4 102.9,48.6 103,47.5 102.5,47.1 101,47.4 99.1,48.9 96.9,50.3 
				94.6,52.3 92.5,54 90.3,54.8 87.8,54.6 87.4,52.3 88.1,50 88,47.7 87,45.4 85.1,44.3 84.2,44.5 84.3,45.2 84.9,47 84.4,50 
				83.4,52.5 82.6,53.6 82.1,55.8 79.8,59.5 79.8,61.4 80.4,62.9 81.3,64.2 			"/>
		</g>
		<g id="XMLID_71_">
			<path id="XMLID_72_" class="st1" d="M79.8,59.9c0,0,0.2,1,1.1,1.9s2.4,1.9,2.1,2.6c-0.3,0.8-1,2.2-0.5,2.7
				c0.5,0.4,5.7-0.4,6.7-0.7c1-0.3,1.4,0.7,2,0.7c0.6,0,2.5-0.6,3.1-0.1s2.9,0.8,3.6,0.6c0.7-0.2,2.7,0.4,3.3,0.2
				c0.6-0.2,3.6,0.8,4.1,0c0.5-0.8,0,0.1,0,0.1v0.3l-1.3,0.6l-2.5,0.3l-3.7-0.2l-4.3-0.5l-2,0.3l-1.8-0.4l-2.3,0.3l-3.1,0l-2.9-0.5
				l-0.5-0.4l0-1l0.6-2l-0.3-0.5l-0.7-0.9l-0.7-1.8L79.8,59.9z"/>
		</g>
		<g id="XMLID_69_">
			<path id="XMLID_70_" class="st1" d="M95.1,64.6c0,0-1.2-1.4,0.4-1.8c1.7-0.4,5.1-0.5,5.1-1.1c0.1-0.6,3.8-0.9,3.7-1.3
				s3.7-0.4,3.2-1.2l-0.1,0.6l-0.6,0.6l-1.6,0.9l-3.4,1.2l-2.2,0.5L97,63.4l-1.1,0.4L95.1,64.6L95.1,64.6z"/>
		</g>
		<g id="XMLID_67_">
			<path id="XMLID_68_" class="st1" d="M96,60.5c0,0-1.1-0.5-0.1-1.2c1-0.7,5.1-1.8,4.9-2.4c-0.3-0.6,4-1,3.8-1.5
				c-0.2-0.5,3.9-0.7,3.6-1.4l0,0.7l-0.4,0.5l-1.3,0.7l-1.5,0.4l-4.5,2.1L98,59.4L96.6,60L96,60.5z"/>
		</g>
		<g id="XMLID_65_">
			<path id="XMLID_66_" class="st1" d="M95,56.7c0,0-1.2,0-0.6-1.1s3.7-2.9,3.2-3.8c-0.5-0.9,3-1.5,2.5-2.2
				c-0.4-0.7,3.2-1.9,2.7-2.5l0.1,1.1l-0.8,1.2l-1.5,1.3l-2.2,2.5l-2.2,1.8l-1,1L95,56.7z"/>
		</g>
		<g id="XMLID_3_">
			<g id="XMLID_63_">
				<path id="XMLID_64_" class="st2" d="M100.5,69.3c-1,0-6.1-0.5-7-0.7c-0.4,0.1-2.4,0.4-3.7-0.1c-1.6,0.2-9,0.9-9.2-1.2
					c-0.1-1,0.1-1.8,0.3-2.3c0.2-0.5,0.3-0.7,0-0.9c-1-0.9-2.3-3.6-1-5.7c1.3-2.1,1.9-2.9,2-3.4c0.3-1.1,0.5-1.7,0.8-1.9
					c0.4-0.4,2.4-4.7,1.7-6.8c-0.2-0.6-0.6-1.6-0.3-1.9c0.2-0.3,0.9-0.2,1-0.2c0.5,0.1,2.1,0.5,2.8,2.5c0.5,1.5,0.4,3.2-0.3,5.2
					c0,0.1-0.1,0.1-0.1,0.2c0,0-0.2,1.1,0.3,2.3l2.3,0.2l2.1-0.8c0.9-0.7,3.2-2.5,3.5-2.9c0.5-0.6,2.2-1.8,3-2.2
					c0.3-0.3,2.3-2,3.4-1.8c0.3,0,0.5,0.2,0.7,0.4c0.8,1.4-1.7,3.4-2.1,3.7c-0.2,0.2-2.2,2.3-2.5,2.6c-0.1,0.1-0.1,0.1-0.2,0.2
					c-2,1.7-2.6,2.3-2.8,2.6c0.7-0.1,2.4-0.6,3.8-1.1c0.5-0.2,1.5-0.5,2.5-0.8c0.9-0.3,1.8-0.5,2.1-0.7c0.1,0,0.1-0.1,0.2-0.1
					c0.7-0.3,2.5-1.1,3.6-0.7c0.4,0.2,0.7,0.5,0.8,0.9c0.2,0.4,0.2,0.7,0,1.1c-0.5,1-2.3,1.5-3.1,1.7c-0.1,0-0.3,0.1-0.3,0.1
					c-0.2,0.1-4.4,2-5.2,2.3c-0.2,0.1-0.4,0.2-0.8,0.3c-0.6,0.2-1.8,0.6-2.3,0.9c0.6,0,1.7-0.3,2.5-0.4c0.6-0.1,1.1-0.3,1.6-0.3
					c0.3-0.1,0.8-0.2,1.4-0.4c1.7-0.5,4.1-1.2,5.1-0.6c0.3,0.2,0.4,0.4,0.5,0.7c0.3,1.5-2.6,2.5-5.8,3.5c-0.4,0.1-0.6,0.2-0.7,0.2
					c-0.2,0.1-0.6,0.2-1.4,0.3c-1.1,0.2-4,0.7-4.2,1.2c-0.1,0.3-0.1,0.5,0,0.6c0.1,0.2,0.4,0.3,0.8,0.4c0.8,0.2,4.7,0.7,5.7,0.8
					c0.9,0.1,3.5,0.2,3.6,1.6c0,0.2-0.1,0.4-0.2,0.6c-0.7,0.7-3,0.9-4.6,0.9h-0.2C100.6,69.3,100.5,69.3,100.5,69.3z M93.5,68.1
					L93.5,68.1c0.7,0.2,6.4,0.7,7,0.7h0.2c3-0.1,4-0.5,4.3-0.8c0.1-0.1,0.1-0.2,0.1-0.2c0-0.4-0.5-1-3.1-1.1c-1-0.1-5-0.6-5.7-0.8
					c-0.6-0.1-0.9-0.3-1.1-0.7c-0.2-0.3-0.2-0.7,0-1.1c0.3-0.6,1.7-1,4.6-1.5c0.6-0.1,1.1-0.2,1.3-0.3c0.1-0.1,0.4-0.1,0.8-0.2
					c1.4-0.4,5.7-1.7,5.4-2.9c-0.1-0.2-0.1-0.3-0.3-0.3c-0.8-0.5-3.2,0.2-4.7,0.6c-0.6,0.2-1.1,0.3-1.4,0.4
					c-0.4,0.1-0.9,0.2-1.5,0.3c-1.6,0.4-2.6,0.6-3.1,0.4c-0.2-0.1-0.3-0.3-0.3-0.3c0-0.4,0.6-0.6,3-1.5c0.3-0.1,0.6-0.2,0.8-0.3
					c0.8-0.3,4.9-2.2,5.1-2.3c0.1,0,0.2-0.1,0.4-0.1c0.7-0.2,2.4-0.6,2.8-1.4c0.1-0.2,0.1-0.4,0-0.6c-0.1-0.3-0.3-0.5-0.6-0.6
					c-0.9-0.4-2.5,0.3-3.2,0.6c-0.1,0.1-0.2,0.1-0.2,0.1c-0.3,0.1-1.2,0.4-2.1,0.7c-1,0.3-2,0.6-2.5,0.8c-0.3,0.1-3.3,1.3-4.2,1.1
					c-0.2,0-0.3-0.1-0.3-0.3c-0.1-0.3,0.1-0.8,3.1-3.3c0.1-0.1,0.2-0.1,0.2-0.2c0.3-0.3,2.5-2.6,2.5-2.6l0,0c0.7-0.5,2.5-2.2,2-3.1
					c-0.1-0.1-0.2-0.2-0.3-0.2c-0.8-0.1-2.5,1.2-3.1,1.7l0,0l-0.1,0c-0.7,0.3-2.4,1.6-2.9,2.1c-0.5,0.6-3.6,3-3.7,3.1l-0.1,0
					l-2.3,0.9l-2.2-0.2c0.3,0.6,0.7,1.2,1.3,1.7L89.1,57c-2.4-2-2-5.1-2-5.1c0,0,0.1-0.1,0.1-0.2c0.7-1.9,0.8-3.5,0.3-4.8
					c-0.5-1.4-1.5-1.9-2-2.1c-0.5-0.2-0.9-0.2-1-0.1c0,0.2,0.2,0.8,0.4,1.4c0.9,2.4-1.4,7.1-1.8,7.4c-0.2,0.1-0.4,0.5-0.6,1.6
					c-0.1,0.6-0.7,1.6-2.1,3.6c-1.3,2,0.2,4.4,0.9,5.1c0.5,0.5,0.3,1,0.1,1.5c-0.2,0.5-0.4,1.1-0.3,2c0.2,1.2,5.2,1.1,8.8,0.7H90
					l0.1,0C91.1,68.6,93.5,68.1,93.5,68.1L93.5,68.1z"/>
			</g>
			<g id="XMLID_59_">
				<path id="XMLID_60_" class="st2" d="M104.9,55.9c0,0-0.3-1.1-0.6-1.5l-0.2,0.1c0.3,0.4,0.6,1.5,0.6,1.5L104.9,55.9z"/>
			</g>
			<g id="XMLID_57_">
				<path id="XMLID_58_" class="st2" d="M101.1,57.7c0-0.1-0.2-1.4-0.8-1.9l-0.2,0.2c0.5,0.5,0.7,1.8,0.7,1.8L101.1,57.7z"/>
			</g>
			<g id="XMLID_55_">
				<path id="XMLID_56_" class="st2" d="M98.3,52.6c-0.1-0.1-0.9-1.4-1.4-1.5l-0.1,0.3c0.3,0.1,0.9,0.9,1.2,1.4L98.3,52.6z"/>
			</g>
			<g id="XMLID_43_">
				<path id="XMLID_54_" class="st2" d="M100.7,50.1c-0.1-0.2-0.7-1-1-1l-0.1,0.3c0.2,0,0.6,0.6,0.9,0.9L100.7,50.1z"/>
			</g>
			<g id="XMLID_14_">
				<path id="XMLID_42_" class="st2" d="M104.3,60.9c0,0-0.1-0.8-0.5-1.4l-0.2,0.2c0.4,0.5,0.5,1.2,0.5,1.2L104.3,60.9z"/>
			</g>
			<g id="XMLID_12_">
				<path id="XMLID_13_" class="st2" d="M100.2,60.4l-0.2,0.2c0.4,0.5,0.4,1.5,0.4,1.5h0.3C100.6,62.1,100.6,61,100.2,60.4z"/>
			</g>
			<g id="XMLID_10_">
				<path id="XMLID_11_" class="st2" d="M101.4,67.1l-0.3,0.1c0.1,0.2-0.1,0.9-0.2,1.3l0.3,0.1C101.3,68.4,101.6,67.4,101.4,67.1z"
					/>
			</g>
			<g id="XMLID_8_">
				<path id="XMLID_9_" class="st2" d="M98.2,66.6l-0.2,0.1c0.1,0.2-0.1,0.8-0.3,1.4l0.2,0.1C97.9,68,98.3,67,98.2,66.6z"/>
			</g>
			<g id="XMLID_6_">
				<path id="XMLID_7_" class="st2" d="M85,44.4l-0.2,0.1c0.3,0.7,0.5,1.8,0.2,1.9l0.1,0.2C85.6,46.3,85.1,44.7,85,44.4z"/>
			</g>
			<g id="XMLID_4_">
				<path id="XMLID_5_" class="st2" d="M88.1,49.3L88,49.1c0,0-0.9,0.4-1.6,0l-0.1,0.2c0.3,0.2,0.6,0.2,0.9,0.2
					C87.6,49.5,88,49.3,88.1,49.3z"/>
			</g>
		</g>
	</g>
</g>
</svg>
